<?xml version="1.0" encoding="UTF-8"?>
<svg version="1.1" xmlns="http://www.w3.org/2000/svg" width="800" height="800">
<path d="M0 0 C264 0 528 0 800 0 C800 264 800 528 800 800 C536 800 272 800 0 800 C0 536 0 272 0 0 Z " fill="#FCFCFC" transform="translate(0,0)"/>
<path d="M0 0 C1.03640625 0.38542969 2.0728125 0.77085938 3.140625 1.16796875 C23.22589466 8.96488876 40.01691958 24.35025098 48.97705078 44.16015625 C53.56087323 55.41744842 55 64.73025114 55 77 C63.25 77 71.5 77 80 77 C80.33 75.35 80.66 73.7 81 72 C85.81886566 63.55469207 91.74121133 57.54594793 100.765625 53.875 C110.45206838 51.2545129 121.35050059 51.98851675 130.34765625 56.39453125 C139.10542433 61.69562504 144.55062682 68.13704406 147.61328125 77.96875 C149.62766065 88.54932864 147.37826665 97.75822393 141.68359375 106.67578125 C136.51038802 113.81744577 129.49654368 117.77201744 121 120 C109.57586192 121.62578469 100.89161812 120.02581227 91.50390625 113.1796875 C88.76576577 110.79609563 86.79810062 108.3242762 84.6875 105.375 C83.64142578 103.93253906 83.64142578 103.93253906 82.57421875 102.4609375 C81 100 81 100 81 98 C72.42 98 63.84 98 55 98 C55 118.46 55 138.92 55 160 C70.31658917 159.93830968 70.31658917 159.93830968 85.6328125 159.83984375 C91.88086223 159.79151447 98.12873446 159.74746769 104.37695312 159.72900391 C109.41515994 159.71384592 114.45290205 159.67941535 119.49090195 159.63169098 C121.41175164 159.61686838 123.33266767 159.60895848 125.25357437 159.60811615 C127.94705844 159.60574739 130.63925734 159.57867554 133.33251953 159.54589844 C134.12446213 159.5509288 134.91640472 159.55595917 135.73234558 159.56114197 C142.66971535 159.43076104 146.78249549 156.48324454 151.61865234 151.60839844 C152.25886322 150.9680365 152.8990741 150.32767456 153.5586853 149.66790771 C154.22767853 148.98859192 154.89667175 148.30927612 155.5859375 147.609375 C156.28772125 146.90476135 156.989505 146.20014771 157.71255493 145.47418213 C159.93813652 143.23746565 162.15663639 140.99387311 164.375 138.75 C165.88885954 137.22610203 167.4031777 135.70265953 168.91796875 134.1796875 C172.61730413 130.45838058 176.31086048 126.73141341 180 123 C179.79503906 122.38511719 179.59007812 121.77023438 179.37890625 121.13671875 C175.97727442 110.93182325 173.19434212 99.67809714 178.125 89.4375 C179.51953125 87.109375 179.51953125 87.109375 181 85 C181.45761719 84.34515625 181.91523437 83.6903125 182.38671875 83.015625 C185.88726296 78.52725599 189.9798764 75.61544607 195 73 C195.59296875 72.67902344 196.1859375 72.35804688 196.796875 72.02734375 C204.05611937 68.69243448 212.65663273 68.82682157 220.25390625 70.87890625 C231.24330457 75.13150866 238.95216513 81.23729494 244 92 C246.89752413 100.29663741 246.20125456 111.69193419 242.5625 119.5625 C236.92079911 129.11804908 229.92626042 133.81037933 219.42578125 137.16015625 C211.29532126 139.1533705 204.04053643 137.91604272 196 136 C196 136.66 196 137.32 196 138 C194.64453125 139.296875 194.64453125 139.296875 192.8125 140.75 C189.43120182 143.54058946 186.80225164 146.62292751 184 150 C182.53391002 151.21111781 181.06696087 152.4214313 179.58203125 153.609375 C177.81384958 155.16362852 176.3388194 156.8327586 174.8125 158.625 C161.42939807 174.2336732 161.42939807 174.2336732 153 178 C152.34 178 151.68 178 151 178 C151 178.66 151 179.32 151 180 C147.06335428 181.31221524 143.31677809 181.13088917 139.21411133 181.11352539 C137.86746147 181.11374443 137.86746147 181.11374443 136.49360657 181.1139679 C133.52305697 181.11327064 130.55256991 181.10548697 127.58203125 181.09765625 C125.52365656 181.09579141 123.46528142 181.09436782 121.40690613 181.09336853 C115.98669206 181.08954859 110.56650476 181.07972273 105.14630127 181.06866455 C99.61641807 181.05843921 94.08653055 181.0538685 88.55664062 181.04882812 C77.70441343 181.03810002 66.85221313 181.02050742 56 181 C56 193.54 56 206.08 56 219 C59.42084961 218.97905273 62.84169922 218.95810547 66.36621094 218.93652344 C77.69764362 218.87009802 89.02909178 218.82579826 100.36066818 218.79275131 C107.22768887 218.77218922 114.09452415 218.74419158 120.96142578 218.69824219 C127.59446016 218.65387914 134.22735328 218.6308289 140.8605423 218.62049103 C143.38496167 218.61312838 145.90937111 218.59875113 148.43370819 218.57707977 C151.98305073 218.54783422 155.53161011 218.54405294 159.08105469 218.54589844 C160.11324631 218.53151733 161.14543793 218.51713623 162.20890808 218.50231934 C172.30824989 218.55874803 181.79084395 220.79084395 189.0625 228.0625 C189.54654297 228.5356665 190.03058594 229.00883301 190.52929688 229.49633789 C192.03847928 230.97982896 193.51902662 232.48840591 195 234 C196.01773866 235.00962272 197.03726338 236.0174483 198.05859375 237.0234375 C200.72751108 239.66103257 203.36624572 242.32725923 206 245 C206.75152344 245.66257812 207.50304687 246.32515625 208.27734375 247.0078125 C210.94849112 250.09689449 210.60793051 252.654088 210.46875 256.5859375 C209.76513921 260.20953306 207.87313385 261.8276305 205 264 C204.67 264.33 204.34 264.66 204 265 C199.40299355 265.38957682 196.95223034 265.48545076 192.8125 263.375 C190.34022063 261.28729742 188.39946188 259.17612176 186.41015625 256.63671875 C184.18486298 254.05389913 181.5819132 251.94115886 178.98828125 249.73828125 C177.1450221 248.12678749 175.44557003 246.45175134 173.75 244.6875 C169.99718607 241.0199773 167.49680561 239.75670497 162.26702881 239.7215271 C161.3191449 239.71036362 160.37126099 239.69920013 159.39465332 239.68769836 C158.36175171 239.68553818 157.3288501 239.68337799 156.26464844 239.68115234 C155.17166443 239.67110672 154.07868042 239.6610611 152.95257568 239.65071106 C149.33818083 239.61980864 145.72386029 239.60282409 142.109375 239.5859375 C139.60401772 239.56723156 137.09866677 239.54765858 134.59332275 239.5272522 C128.67193873 239.48111751 122.75054037 239.44373097 116.82907319 239.41057932 C108.24191623 239.36188225 99.65489292 239.29549621 91.06784058 239.23126221 C79.04526805 239.14296914 67.02271586 239.07326222 55 239 C55 256.49 55 273.98 55 292 C63.58 292 72.16 292 81 292 C81.66 290.02 82.32 288.04 83 286 C87.88991383 277.78994582 95.76621431 270.82693868 105 268 C116.64707861 266.55842547 127.21647341 267.75332652 137.109375 274.421875 C143.30293912 279.34496443 148.41452504 286.1567034 150 294 C151.27617313 305.90669527 149.69386944 314.53470452 142.2421875 324.3046875 C136.37541987 330.8096809 128.96511715 335.38064003 120.2109375 336.47265625 C107.44325879 336.76690135 98.46778442 333.74168366 89 325 C82 315.9982669 82 315.9982669 82 312 C73.09 312 64.18 312 55 312 C55 336.09 55 360.18 55 385 C89.32 385 123.64 385 159 385 C159.33 383.35 159.66 381.7 160 380 C164.09031283 372.54978734 171.10896248 366.34741574 178.9375 363.0625 C188.95188456 360.31379654 200.35286229 360.31868862 209.6875 365.0625 C214.9131106 368.07959619 219.41719942 371.10617463 223 376 C223.50273438 376.68191406 224.00546875 377.36382812 224.5234375 378.06640625 C229.63067104 386.4044588 229.32754792 396.66734903 227.37109375 406 C224.22929123 415.01683233 218.09526622 421.23003408 209.6875 425.5 C200.41663254 429.77338321 188.98926757 430.83474309 179 427.9375 C170.9503894 424.60555287 164.43890408 418.42242977 160 411 C159.34 409.35 158.68 407.7 158 406 C124.01 405.67 90.02 405.34 55 405 C55 425.79 55 446.58 55 468 C82.72 468 110.44 468 139 468 C139.33 466.35 139.66 464.7 140 463 C145.23071335 453.05044739 153.50835232 446.74936625 164 443 C166.95051758 442.57528858 169.83490897 442.52274831 172.8125 442.5625 C173.60640137 442.57007324 174.40030273 442.57764648 175.21826172 442.58544922 C186.1023259 442.89044345 193.85741115 447.21288504 201.6875 454.58984375 C207.55370184 460.82268321 210.18573904 467.86223891 210.5625 476.375 C210.3404931 483.33943877 208.17686559 488.86855679 205 495 C204.443125 496.093125 203.88625 497.18625 203.3125 498.3125 C197.19086548 505.42683201 188.98726829 509.99780963 179.69018555 511.33129883 C167.77589197 512.22408161 158.55220486 510.88483496 148.89453125 503.359375 C144.17704879 499.05429506 142.23234063 494.81821314 139 489 C111.28 488.67 83.56 488.34 55 488 C55 505.82 55 523.64 55 542 C58.99867188 541.94199219 62.99734375 541.88398437 67.1171875 541.82421875 C70.3306806 541.79200304 73.54412731 541.76491093 76.75769043 541.74124908 C80.13632276 541.71498108 83.51431512 541.6799567 86.89257812 541.62280273 C90.78011759 541.56179076 94.6667547 541.5337056 98.5546875 541.51171875 C99.74988007 541.48591232 100.94507263 541.4601059 102.17648315 541.43351746 C111.03860582 541.43058275 117.8168486 543.23516374 124.5 549.25 C125.7375 550.61125 125.7375 550.61125 127 552 C128.53183436 553.38594538 130.07488161 554.75953521 131.625 556.125 C134.50228491 558.65975099 137.24516122 561.21780329 139.8125 564.0625 C140.28220215 564.57151855 140.7519043 565.08053711 141.23583984 565.60498047 C142.56270008 567.05683141 143.86408716 568.5318405 145.1640625 570.0078125 C147.93924216 572.38947292 147.93924216 572.38947292 151.78125 571.82421875 C152.46525879 571.68951172 153.14926758 571.55480469 153.85400391 571.41601562 C163.43221974 569.55921474 175.72193571 569.49038225 184 575 C191.78417775 580.86519588 198.69593241 587.15997654 201 597 C202.20467522 607.39999432 201.35460511 616.1824529 195.01171875 624.65625 C187.19245999 633.83948999 178.74103572 639.17613227 166.6015625 640.3203125 C155.10603373 640.69435357 146.53849812 637.70590598 138 630 C130.34770924 622.45527156 126.95962346 615.07764941 126.6875 604.25 C126.69395972 599.0047049 127.70284631 595.45391225 130.3203125 590.9375 C131.22703391 589.01397219 131.22703391 589.01397219 130.31933594 587.17236328 C128.69651017 584.50028636 126.77852468 582.51911125 124.5703125 580.3046875 C123.69246094 579.42425781 122.81460937 578.54382813 121.91015625 577.63671875 C120.99105469 576.72535156 120.07195312 575.81398438 119.125 574.875 C118.21363281 573.95589844 117.30226563 573.03679688 116.36328125 572.08984375 C115.48285156 571.21199219 114.60242188 570.33414063 113.6953125 569.4296875 C112.89109863 568.62772949 112.08688477 567.82577148 111.25830078 566.99951172 C107.58445286 563.74666691 104.84999014 562.75530288 99.95605469 562.68115234 C98.95531921 562.66128265 97.95458374 562.64141296 96.92352295 562.62094116 C95.85047913 562.60938995 94.7774353 562.59783875 93.671875 562.5859375 C92.56773254 562.56657135 91.46359009 562.5472052 90.32598877 562.5272522 C86.80073767 562.46749108 83.27545385 562.42108436 79.75 562.375 C77.35936079 562.33681708 74.96873529 562.29776517 72.578125 562.2578125 C66.71887174 562.16179233 60.85953585 562.07673452 55 562 C55.01571045 563.00675781 55.0314209 564.01351562 55.04760742 565.05078125 C55.10284552 568.86775368 55.13668273 572.68469274 55.16479492 576.50195312 C55.17967183 578.13873274 55.1999798 579.77547407 55.22631836 581.41210938 C55.44589678 595.43068449 55.19268704 609.93640458 48.1875 622.5 C47.8356665 623.16451172 47.48383301 623.82902344 47.12133789 624.51367188 C44.4976157 629.36407036 41.59805133 633.8117921 38 638 C37.23816406 638.97453125 37.23816406 638.97453125 36.4609375 639.96875 C25.05352692 654.02527488 7.29374244 661.99870273 -10 666 C-10.7734375 666.19207031 -11.546875 666.38414062 -12.34375 666.58203125 C-34.69402851 670.09891331 -57.77226685 664.09910177 -76 651 C-86.15439082 642.82151621 -95.18289985 633.14772001 -102 622 C-102 621.34 -102 620.68 -102 620 C-103.18335938 619.95101562 -104.36671875 619.90203125 -105.5859375 619.8515625 C-122.55633091 619.08238656 -122.55633091 619.08238656 -130 617 C-131.11246094 616.69449219 -132.22492188 616.38898437 -133.37109375 616.07421875 C-151.98706853 610.43712337 -167.23105256 600.54796726 -179 585 C-179.63035156 584.195625 -180.26070312 583.39125 -180.91015625 582.5625 C-190.17409941 570.1834287 -197.13822874 552.67026045 -197 537 C-197.64026123 537.02094727 -198.28052246 537.04189453 -198.94018555 537.06347656 C-201.85579575 537.14689284 -204.77115452 537.19873969 -207.6875 537.25 C-208.69490234 537.28351562 -209.70230469 537.31703125 -210.74023438 537.3515625 C-218.2503749 537.45070627 -218.2503749 537.45070627 -222.14453125 535.109375 C-225.00427082 531.85830265 -225.20212852 529.56101875 -225.5234375 525.265625 C-224.6835261 521.63018759 -223.00850354 519.12166224 -220 517 C-216.55926152 516.21146584 -213.20351097 516.3099553 -209.6875 516.375 C-192.25284326 516.10155449 -177.24002292 511.69196749 -162.7578125 501.78125 C-159.18202091 499.47167356 -157.18814682 499.40169331 -153 500 C-149.29609979 502.02666238 -147.34636989 503.48044516 -145 507 C-144.22110312 513.89880096 -144.22110312 513.89880096 -146.8125 517.5625 C-148.203125 518.72265625 -148.203125 518.72265625 -150 520 C-150.77859375 520.55558594 -151.5571875 521.11117187 -152.359375 521.68359375 C-167.71196237 532 -167.71196237 532 -175 532 C-172.219238 551.91555263 -164.74630613 569.71317077 -149 583 C-132.51708619 595.31632669 -114.21092656 599.54365656 -93.85009766 596.69970703 C-90.04340205 595.9026262 -86.54694575 594.57044081 -83 593 C-82.01386719 592.57589844 -81.02773438 592.15179687 -80.01171875 591.71484375 C-74.96809399 589.36638553 -70.48193907 586.68535349 -66.04125977 583.36474609 C-60.90655458 579.54437496 -56.83230099 576.76330153 -50.1640625 577.42578125 C-46.7309977 578.33672083 -44.68143812 579.662336 -42 582 C-40.42577247 585.14845506 -40.33071657 588.59218072 -41 592 C-44.11864106 597.17827834 -48.80220317 599.52989738 -53.9375 602.375 C-54.77837158 602.85106689 -55.61924316 603.32713379 -56.4855957 603.81762695 C-63.2701896 607.64289365 -70.10687306 611.37399247 -77 615 C-73.76561756 624.04689582 -65.02540686 632.67389453 -56.671875 637.28515625 C-54.47114408 638.26949678 -52.25411938 639.14641803 -50 640 C-48.80375 640.556875 -47.6075 641.11375 -46.375 641.6875 C-33.63480221 646.64202136 -15.87987408 645.85745015 -3.36352539 640.62231445 C11.85766455 633.70034903 20.74570829 624.87129801 28 610 C27.13048706 610.01571045 27.13048706 610.01571045 26.2434082 610.03173828 C23.59981679 610.07348615 20.95629495 610.09938538 18.3125 610.125 C17.40048828 610.14175781 16.48847656 610.15851562 15.54882812 610.17578125 C9.66926071 610.21854174 5.60515979 609.83065282 0.6875 606.375 C-1.29438671 603.58567796 -1.62405033 601.44217716 -1.46484375 598.03515625 C-0.63740028 594.41248356 1.36899472 592.5683623 4 590 C12.65126837 585.67436581 23.32758791 589 33 589 C33 564.58 33 540.16 33 515 C4.84352644 514.23270398 4.84352644 514.23270398 -21 525 C-25.63844468 530.56613362 -27.04498968 536.41528935 -27.8125 543.5 C-28.63321298 549.25155659 -29.69201699 552.12281529 -34 556 C-37.54641117 557.77320558 -41.14728237 557.75505521 -45 557 C-47.97104822 555.18603344 -49.55314244 553.15129961 -51 550 C-53.13523785 538.48750925 -48.52099587 527.67483826 -42.36328125 518.21875 C-31.1426848 502.9364831 -17.33724829 497.49386151 0.8828125 494.53125 C11.44747909 493.42242202 22.5758825 494 33 494 C33 450.77 33 407.54 33 363 C14.57091797 363.08701172 14.57091797 363.08701172 -4.23046875 363.17578125 C-12.00065627 363.20132026 -19.77081348 363.22559603 -27.54101562 363.24414062 C-39.88202276 363.2738302 -52.22285945 363.30876737 -64.5637207 363.37719727 C-73.55078915 363.4270067 -82.53771955 363.45928496 -91.52492219 363.47044247 C-96.28440423 363.4769654 -101.04349135 363.49231336 -105.80284691 363.52865028 C-110.28198339 363.56257094 -114.76056203 363.57306096 -119.23981476 363.56553841 C-120.88416639 363.56691472 -122.52853655 363.57687091 -124.17277718 363.59602737 C-126.41817262 363.62090594 -128.661462 363.61492668 -130.90690613 363.60127258 C-132.16330997 363.60588155 -133.4197138 363.61049051 -134.71419048 363.61523914 C-138.88872559 362.83359389 -140.3480521 361.23790286 -143 358 C-144.66426454 354.67147092 -144.38357035 351.34249624 -143.375 347.8125 C-141.33512119 345.12356884 -139.09694196 344.29887499 -136 343 C-132.6223774 342.63085651 -132.6223774 342.63085651 -128.86257935 342.63923645 C-127.819709 342.63539154 -127.819709 342.63539154 -126.75577056 342.63146895 C-124.43866563 342.6265487 -122.12222014 342.64299411 -119.80517578 342.65942383 C-118.13928747 342.66027048 -116.47339804 342.65979421 -114.80751038 342.65809631 C-110.29344839 342.65723644 -105.7796261 342.67486097 -101.26561975 342.69581819 C-96.54508336 342.71458624 -91.82454133 342.71633553 -87.10397339 342.71989441 C-78.16867173 342.72921449 -69.23348033 342.7538278 -60.29822719 342.78394288 C-48.22137289 342.82376179 -36.14448839 342.83994206 -24.06758499 342.85744953 C-5.04497409 342.88564889 13.97740414 342.94541869 33 343 C33 289.54 33 236.08 33 181 C3.77222524 181.19733823 3.77222524 181.19733823 -25.45507812 181.45043945 C-31.15917969 181.47302246 -31.15917969 181.47302246 -33.84509277 181.47721863 C-35.68695144 181.48480411 -37.52878821 181.50219313 -39.3704834 181.52787781 C-58.58594799 181.78203168 -75.40393554 178.52805974 -90 165 C-93 161.5 -93 161.5 -93 159 C-93.66 159 -94.32 159 -95 159 C-107.32260515 135.874015 -107.32260515 135.874015 -105 125 C-103.26029905 121.939415 -101.19806686 119.59903343 -98 118 C-94.11574623 117.4580111 -92.00130887 117.99943583 -88.375 119.5625 C-84.1556086 122.79398138 -83.61428397 127.22053387 -82.47900391 132.19750977 C-80.19952441 141.96211394 -75.28707263 149.34369817 -67 155 C-57.18988815 160.39977454 -46.29900391 159.60466459 -35.45703125 159.609375 C-33.47733725 159.62437691 -31.49765567 159.64110823 -29.51799011 159.65948486 C-24.34121078 159.70294485 -19.16460023 159.72310991 -13.9876709 159.73822021 C-7.75820829 159.76133133 -1.5289298 159.81373613 4.70038605 159.86116028 C14.13363843 159.92973186 23.56636356 159.96137713 33 160 C33 139.54 33 119.08 33 98 C25.41 98 17.82 98 10 98 C4.72413793 95.36206897 4.72413793 95.36206897 3 92 C2.46456961 88.89217575 2.40288825 86.10166382 3 83 C5.67454269 79.43394308 7.66606951 77.7719381 12 77 C13.65989282 76.92088457 15.3226287 76.89221115 16.984375 76.90234375 C17.91894531 76.90556641 18.85351562 76.90878906 19.81640625 76.91210938 C20.78449219 76.92048828 21.75257813 76.92886719 22.75 76.9375 C23.73355469 76.94201172 24.71710938 76.94652344 25.73046875 76.95117188 C28.15370791 76.96293517 30.57682273 76.97937316 33 77 C31.35482513 59.24684434 26.01188116 43.06373135 12.0078125 31.13671875 C0.52172041 22.97711827 -12.52507389 17.40602283 -26.6875 17.5625 C-27.65139648 17.57007324 -28.61529297 17.57764648 -29.60839844 17.58544922 C-41.74700023 17.86363397 -52.05228432 20.84908617 -62 28 C-62.95132812 28.68320313 -63.90265625 29.36640625 -64.8828125 30.0703125 C-70.9114248 34.68421044 -74.99890461 38.98639032 -78 46 C-76.99582031 46.46148437 -75.99164063 46.92296875 -74.95703125 47.3984375 C-51.52731125 58.45519166 -34.16777039 75.45738522 -25 100 C-22.02140577 109.38738236 -18.05493288 122.72092581 -21.89453125 132.2109375 C-23.56486022 134.9141554 -25.06925039 135.75287251 -28 137 C-31.11021716 137.51931031 -33.89997677 137.61775825 -37 137 C-39.75569447 134.81840855 -41.43588747 133.12822506 -43 130 C-43.13211133 127.73062094 -43.23061421 125.4592459 -43.3125 123.1875 C-43.96183093 111.26733217 -47.75509815 101.14185105 -54 91 C-54.40089844 90.34257812 -54.80179687 89.68515625 -55.21484375 89.0078125 C-63.64455906 76.23551658 -79.00780593 67.80635059 -93.5625 64.25 C-110.45948316 60.91074739 -127.72206949 62.61883943 -142.6640625 71.6015625 C-153.1589921 78.29186978 -153.1589921 78.29186978 -160 88 C-160.61746094 88.61359375 -161.23492187 89.2271875 -161.87109375 89.859375 C-170.86017791 98.89794035 -172.32287556 112.69781402 -173.48046875 124.8125 C-173.59793457 126.01592041 -173.59793457 126.01592041 -173.71777344 127.24365234 C-173.8603879 128.78927624 -173.9857717 130.33662325 -174.09082031 131.88525391 C-174.5255226 136.90481362 -175.7283436 139.98725017 -179 144 C-182.44440027 146.29626684 -183.7639466 146.24351772 -187.8125 146.1875 C-188.82957031 146.18105469 -189.84664062 146.17460937 -190.89453125 146.16796875 C-194 146 -194 146 -196.68359375 145.50390625 C-201.5375949 144.76637251 -206.3469924 144.77524071 -211.25 144.75 C-212.23613281 144.729375 -213.22226563 144.70875 -214.23828125 144.6875 C-229.92378276 144.60483596 -242.23082165 151.58628999 -253.45703125 162.26171875 C-262.3301904 171.81638014 -269.11506578 183.73103829 -269.1328125 197.01953125 C-269.13410156 197.95990234 -269.13539063 198.90027344 -269.13671875 199.86914062 C-269.13285156 200.84044922 -269.12898438 201.81175781 -269.125 202.8125 C-269.12886719 203.77220703 -269.13273437 204.73191406 -269.13671875 205.72070312 C-269.12918256 211.24096051 -268.81422785 216.53950374 -268 222 C-267.30962646 221.85377197 -266.61925293 221.70754395 -265.90795898 221.55688477 C-262.7516319 220.88973455 -259.59457752 220.22608954 -256.4375 219.5625 C-255.35146484 219.33240234 -254.26542969 219.10230469 -253.14648438 218.86523438 C-228.86072515 213.77186846 -228.86072515 213.77186846 -220.83203125 216.82421875 C-218.62485789 218.29021785 -216.86917257 220.13082743 -215 222 C-214.55046016 226.57032175 -214.35243951 228.89674879 -216.6875 232.875 C-221.70816215 237.48858144 -227.26445101 237.38020806 -233.75 237.8125 C-243.68465577 238.62178618 -252.63201564 240.65571425 -262 244 C-263.06476563 244.36996094 -264.12953125 244.73992187 -265.2265625 245.12109375 C-286.52046125 253.2397438 -303.69254778 269.33214852 -313.27734375 289.92578125 C-315.84552047 295.77265895 -317.50785491 301.79504023 -319 308 C-319.35964844 309.23105469 -319.71929687 310.46210938 -320.08984375 311.73046875 C-321.33774676 316.74004483 -321.26062254 321.67674269 -321.1875 326.8125 C-321.17130615 328.28432739 -321.17130615 328.28432739 -321.15478516 329.78588867 C-321.11603239 332.52434134 -321.05884274 335.26192304 -321 338 C-320.99355469 339.0828125 -320.98710937 340.165625 -320.98046875 341.28125 C-320.19851947 360.04803265 -308.16162339 380.21123928 -295 393 C-290.52497534 396.91549552 -285.79567269 400.48962287 -281 404 C-278.26919005 402.73507937 -276.11437333 401.37988398 -273.875 399.375 C-271 397 -271 397 -269 397 C-269 396.34 -269 395.68 -269 395 C-267.02987828 393.47135373 -265.07048451 392.06810644 -263 390.6875 C-262.40566162 390.28668213 -261.81132324 389.88586426 -261.19897461 389.47290039 C-260.01098871 388.6746139 -258.82083032 387.87955002 -257.62841797 387.08789062 C-256.26239226 386.17529534 -254.91235803 385.2388252 -253.56640625 384.296875 C-250.62352381 382.3005337 -248.44918881 381.09167119 -244.9375 380.375 C-240.76515168 381.26273369 -237.66582887 382.57250574 -235 386 C-234.0949819 389.49405722 -233.98137572 392.53234286 -235 396 C-238.16556619 399.7318571 -241.68009631 402.23990268 -245.8125 404.8125 C-258.54879145 413.19943366 -267.63764873 425.23491126 -272 440 C-272.49726656 443.64773391 -272.52777775 447.19876111 -272.4375 450.875 C-272.42138672 451.8438916 -272.40527344 452.8127832 -272.38867188 453.81103516 C-271.96082522 469.34656479 -266.50615973 483.08654962 -257 495.375 C-253.97308374 499.50134791 -253.00075327 502.67314621 -253.36328125 507.796875 C-254.48181713 511.66714637 -256.63381067 512.91296262 -260 515 C-262.86608129 516.43304064 -264.81300783 516.30644155 -268 516 C-272.75899661 513.32828261 -275.86543405 510.12038015 -278.9375 505.6875 C-279.36426025 505.08010986 -279.79102051 504.47271973 -280.23071289 503.84692383 C-290.84166613 488.26812426 -295.16803641 472.4899522 -295.25 453.8125 C-295.270625 452.65685547 -295.29125 451.50121094 -295.3125 450.31054688 C-295.34383652 443.33425386 -294.61321508 437.30373086 -292.54980469 430.62768555 C-291.93384978 427.68384776 -292.09572579 425.85547388 -293 423 C-295.1312682 421.0064782 -295.1312682 421.0064782 -297.875 419.3125 C-321.70977611 402.82575072 -337.592329 378.07192917 -343.6875 349.8125 C-348.74433607 320.03335426 -341.99917219 291.86164148 -325.546875 266.78515625 C-316.13721073 253.56295559 -303.55827479 241.85807286 -290 233 C-289.01 233 -288.02 233 -287 233 C-287.28875 231.906875 -287.5775 230.81375 -287.875 229.6875 C-294.08394895 204.52855159 -292.05599206 182.44457061 -279 160 C-276.90899232 156.72260498 -274.628511 153.86103312 -272 151 C-271.57203125 150.53110352 -271.1440625 150.06220703 -270.703125 149.57910156 C-264.14920373 142.48052063 -257.53441225 136.67474828 -249 132 C-248.0203125 131.45601562 -247.040625 130.91203125 -246.03125 130.3515625 C-234.09998806 124.04767411 -223.74339387 122.55696427 -210.3125 122.8125 C-208.91733232 122.82758903 -207.52214866 122.84126991 -206.12695312 122.85351562 C-202.75088416 122.88856132 -199.37565724 122.93769492 -196 123 C-195.94739014 122.27917236 -195.89478027 121.55834473 -195.84057617 120.81567383 C-193.94098353 97.2137777 -182.30320373 75.48919386 -164.54907227 59.99731445 C-150.90834195 48.46342665 -132.07776062 40.674798 -113.95703125 41.0546875 C-106.28104309 41.38496976 -106.28104309 41.38496976 -99.8125 37.9140625 C-98.13699893 35.18058087 -98.13699893 35.18058087 -96.69140625 32.18359375 C-88.12537772 16.06046845 -69.48908403 4.5669839 -52.6953125 -1.2109375 C-51.80585938 -1.47132812 -50.91640625 -1.73171875 -50 -2 C-48.8553125 -2.35578125 -47.710625 -2.7115625 -46.53125 -3.078125 C-32.13860519 -6.58597345 -13.68000368 -5.67535288 0 0 Z " fill="#040404" transform="translate(370,106)"/>
<path d="M0 0 C1.84985352 0.1784668 1.84985352 0.1784668 4 1 C5.29272461 3.21801758 5.29272461 3.21801758 6.40234375 6.14453125 C7.02592773 7.75038086 7.02592773 7.75038086 7.66210938 9.38867188 C8.08298828 10.51853516 8.50386719 11.64839844 8.9375 12.8125 C9.7790773 15.00684452 10.62152354 17.20085597 11.46484375 19.39453125 C11.88330566 20.48999268 12.30176758 21.5854541 12.73291016 22.71411133 C15.88001829 30.87536921 19.02981295 38.79678073 23.75 46.1875 C24.1840918 46.86820557 24.61818359 47.54891113 25.06542969 48.25024414 C37.37472313 67.03917475 58.2990659 76.88032838 79.34375 82.76171875 C83.31633663 84.10713537 86.43399235 85.81719892 90 88 C88.98771805 90.86725673 88.35520688 91.82629718 85.57666016 93.18505859 C84.07304932 93.66193115 84.07304932 93.66193115 82.5390625 94.1484375 C81.42660156 94.51453125 80.31414062 94.880625 79.16796875 95.2578125 C77.99878906 95.62648438 76.82960938 95.99515625 75.625 96.375 C56.15707321 102.59052965 35.93169793 112.02312998 25.15625 130.34765625 C24.7746875 130.89292969 24.393125 131.43820313 24 132 C23.34 132 22.68 132 22 132 C21.74734375 132.65355469 21.4946875 133.30710938 21.234375 133.98046875 C19.98694037 137.03194651 18.64527399 140.02597579 17.28417969 143.02783203 C13.91425326 150.4725373 10.81551073 157.9472698 8.02197266 165.6262207 C6.31363605 170.28342923 4.3609057 174.64140487 2 179 C-1.09911336 176.39601126 -2.31594033 173.4411791 -3.875 169.75 C-4.13619629 169.13374756 -4.39739258 168.51749512 -4.66650391 167.88256836 C-6.48120734 163.50927666 -7.96443349 159.08489059 -9.375 154.5625 C-16.18212379 133.64092464 -28.99572025 118.12750591 -48 107 C-48.65943604 106.60611084 -49.31887207 106.21222168 -49.99829102 105.80639648 C-55.46585309 102.6336382 -60.94343438 100.41074825 -66.9375 98.4375 C-68.69196807 97.84280074 -70.44588183 97.24646348 -72.19921875 96.6484375 C-73.02728027 96.36709961 -73.8553418 96.08576172 -74.70849609 95.79589844 C-78.86763883 94.35132084 -82.94684664 92.71725708 -87 91 C-85.98385709 88.10500161 -85.3176864 87.1603048 -82.5324707 85.75488281 C-81.50726318 85.40780273 -80.48205566 85.06072266 -79.42578125 84.703125 C-78.29027832 84.30609375 -77.15477539 83.9090625 -75.98486328 83.5 C-74.7729834 83.0875 -73.56110352 82.675 -72.3125 82.25 C-50.65628464 74.53286312 -33.12809768 65.24976072 -20 46 C-19.42636719 45.17886719 -18.85273437 44.35773438 -18.26171875 43.51171875 C-14.4005102 37.57523532 -12.0314191 31.16514738 -9.65625 24.5390625 C-7.7744464 19.30792937 -5.70163126 14.1562488 -3.625 9 C-3.26680176 8.10877441 -2.90860352 7.21754883 -2.53955078 6.29931641 C-1.69453193 4.19893525 -0.84808098 2.0991462 0 0 Z " fill="#020202" transform="translate(679,44)"/>
<path d="M0 0 C5.75314037 1.17515301 9.41327816 5.52874681 13.33203125 9.578125 C15.9014787 12.15294786 18.64015049 14.50665632 21.40234375 16.87109375 C23.07261933 18.33803144 24.64710547 19.85878168 26.19921875 21.44921875 C27.17375 21.12695312 28.14828125 20.8046875 29.15234375 20.47265625 C40.94997001 17.12307895 53.80149372 18.8020791 64.39453125 24.6640625 C71.95021317 29.61978543 76.81140529 37.85534296 79.19921875 46.44921875 C80.4421498 56.08916074 77.97668088 64.81787973 72.44921875 72.76171875 C69.19969747 76.74421476 65.54289754 79.72535339 61.19921875 82.44921875 C60.55597656 82.86429687 59.91273438 83.279375 59.25 83.70703125 C51.38925412 87.98926615 41.59930402 87.57729589 33.0390625 85.7890625 C22.75341785 82.44731297 15.22297174 75.98146801 10.19921875 66.44921875 C7.01054184 59.68535864 5.45945603 51.59245172 7.9140625 44.3359375 C8.67182105 42.70518522 9.43514745 41.07702282 10.19921875 39.44921875 C9.94980306 36.79398084 9.46475058 35.71538735 7.5703125 33.81640625 C6.93222656 33.32398438 6.29414062 32.8315625 5.63671875 32.32421875 C3.6953125 30.81640625 3.6953125 30.81640625 2.19921875 29.44921875 C2.19921875 28.78921875 2.19921875 28.12921875 2.19921875 27.44921875 C1.35423828 27.09150391 1.35423828 27.09150391 0.4921875 26.7265625 C-2.29967329 25.17130104 -4.23770533 23.27717451 -6.48828125 21.01171875 C-7.27589844 20.22925781 -8.06351563 19.44679688 -8.875 18.640625 C-11.35648754 15.81686332 -11.7550175 13.85346525 -12.17578125 10.13671875 C-11.40151254 2.52307643 -7.28234304 -0.54166188 0 0 Z " fill="#050505" transform="translate(609.80078125,387.55078125)"/>
<path d="M0 0 C0.66 0 1.32 0 2 0 C2.37511719 0.95519531 2.75023437 1.91039062 3.13671875 2.89453125 C4.7328079 6.93991851 6.36241057 10.97126703 8 15 C8.60908203 16.51400391 8.60908203 16.51400391 9.23046875 18.05859375 C16.86187076 36.00410905 28.58226143 44.77418648 46 52 C48.99032418 53.13452978 51.92841692 54.09970841 55 55 C56.485 55.495 56.485 55.495 58 56 C58 56.66 58 57.32 58 58 C56.90945313 58.34611328 56.90945313 58.34611328 55.796875 58.69921875 C38.71732832 64.23912299 22.10104664 70.92890147 12.25 87 C8.89469291 93.62703002 6.88784449 100.95871776 4.69848633 108.03637695 C3.9558379 110.12415092 3.02778025 112.03886937 2 114 C1.34 114 0.68 114 0 114 C-2.12773362 109.99027101 -3.62245572 106.18686367 -4.8125 101.8125 C-9.399409 86.63776347 -17.84199122 75.7253624 -31.58984375 67.75 C-36.90213795 65.02387422 -42.36704787 62.95670969 -48 61 C-49.60581815 60.4002366 -51.21027487 59.79679688 -52.8125 59.1875 C-53.864375 58.795625 -54.91625 58.40375 -56 58 C-56 57.34 -56 56.68 -56 56 C-55.42668945 55.79431396 -54.85337891 55.58862793 -54.26269531 55.37670898 C-36.23827323 48.85704488 -19.61447445 42.72429639 -10 25 C-7.82578714 20.06057877 -5.90393884 15.04864682 -4 10 C-3.21335913 8.01883041 -2.42247292 6.03933428 -1.625 4.0625 C-1.14933594 2.87333984 -1.14933594 2.87333984 -0.6640625 1.66015625 C-0.33535156 0.83837891 -0.33535156 0.83837891 0 0 Z " fill="#040404" transform="translate(568,10)"/>
<path d="M0 0 C8.66946866 4.89221985 15.79583592 12.13750775 18.9765625 21.6796875 C19.85096514 34.17934498 19.12106664 44.24720546 10.6015625 54.1171875 C2.19328193 62.75789208 -6.01489366 65.94495675 -18.0234375 66.1171875 C-29.09823449 65.99753646 -35.87731686 62.66585652 -43.828125 55.0390625 C-51.2503855 47.06211349 -54.81601397 37.71979753 -54.49609375 26.80078125 C-53.08236194 17.46547778 -47.49954498 9.27478717 -40.0234375 3.6796875 C-27.20462379 -4.87163848 -14.38606664 -6.31844614 0 0 Z " fill="#040404" transform="translate(642.0234375,626.3203125)"/>
<path d="M0 0 C9.72549519 5.02203871 16.09880787 11.38536763 20.08666992 21.58789062 C22.18703532 28.95681965 22.43800339 37.11884021 19.69604492 44.31445312 C13.41799219 55.4769998 5.40766063 62.55736662 -6.98364258 66.16210938 C-17.24883789 68.30584494 -26.84781337 66.66627625 -35.73364258 61.09960938 C-39.85898643 58.14359714 -43.01880713 54.95410701 -45.98364258 50.84960938 C-46.4709082 50.26308594 -46.95817383 49.6765625 -47.46020508 49.07226562 C-52.76378905 41.59095304 -52.16120809 31.60034373 -50.98364258 22.84960938 C-49.87353509 18.98775239 -48.35165157 16.0764163 -45.98364258 12.84960938 C-45.57243164 12.22183594 -45.1612207 11.5940625 -44.73754883 10.94726562 C-35.02452761 -2.22439817 -14.74791461 -6.60360156 0 0 Z " fill="#060606" transform="translate(687.983642578125,523.150390625)"/>
<path d="M0 0 C4.73438209 2.08953299 8.90717511 4.80578478 13.03564453 7.8984375 C14.06689453 8.6203125 15.09814453 9.3421875 16.16064453 10.0859375 C27.90485971 20.50638276 35.13551305 35.59419905 36.18457031 51.09960938 C37.15735806 68.51913476 33.67157497 82.00222708 22.45361328 95.8515625 C14.739813 104.18471901 4.82230727 109.69113559 -5.96435547 112.8984375 C-7.18123047 113.3109375 -8.39810547 113.7234375 -9.65185547 114.1484375 C-13.76598642 115.09125918 -17.94751715 115.18075385 -22.15185547 115.2734375 C-22.84174561 115.29954102 -23.53163574 115.32564453 -24.24243164 115.35253906 C-27.8720539 115.3648533 -29.81935592 114.99252266 -32.89013672 113 C-35.68891755 110.16432375 -36.16940281 108.47523878 -36.33935547 104.5859375 C-36.30881706 100.79306746 -36.09365069 100.06617184 -33.65185547 96.8984375 C-29.97744693 94.16399394 -27.09765406 93.7892439 -22.61987305 93.40478516 C-11.89470948 92.41145961 -3.19080268 89.09147977 5.03564453 81.8984375 C13.11813495 72.15847785 15.47896036 61.52454454 14.39355469 49.06298828 C12.37218606 36.83825823 3.36671635 28.34437656 -6.15185547 21.2734375 C-12.39655261 18.22047445 -18.93086541 16.86237679 -25.83935547 16.4609375 C-30.3741072 16.14395771 -32.79891297 15.37021315 -35.96435547 11.8984375 C-38.45594587 8.1610519 -38.42228831 6.32512167 -37.96435547 1.8984375 C-29.77152208 -11.26861616 -11.63811565 -4.69785959 0 0 Z " fill="#060606" transform="translate(184.96435546875,279.1015625)"/>
<path d="M0 0 C7.33147878 5.14097598 13.33248364 11.96206132 15 21 C15.76983521 31.92573821 14.85468067 41.46062715 7.72265625 50.1171875 C0.61441629 57.88628423 -5.2560637 61.45668187 -15.87890625 62.3125 C-23.62855937 62.63901239 -30.29198564 62.24469788 -37 58 C-37.62132812 57.63777344 -38.24265625 57.27554688 -38.8828125 56.90234375 C-45.83055491 52.46601472 -51.79985323 44.60721304 -53.6015625 36.55859375 C-55.30194565 25.63946665 -54.22291579 17.25176861 -48 8 C-36.50742109 -6.88562602 -15.8018654 -9.46274498 0 0 Z " fill="#050505" transform="translate(660,278)"/>
<path d="M0 0 C1.52545441 -0.00744736 1.52545441 -0.00744736 3.08172607 -0.01504517 C6.43396691 -0.02960907 9.78616051 -0.03645733 13.13842773 -0.04199219 C15.47200013 -0.04774611 17.80557252 -0.05350382 20.1391449 -0.05926514 C25.02554545 -0.06975709 29.91192962 -0.07561232 34.79833984 -0.07910156 C41.06193377 -0.08459826 47.32531163 -0.10865909 53.58883762 -0.13707352 C58.40578347 -0.15568222 63.22267692 -0.16090444 68.03965569 -0.16243744 C70.34934616 -0.16546586 72.65903568 -0.17350075 74.96869087 -0.18662262 C78.19544189 -0.20365414 81.42165992 -0.20181036 84.6484375 -0.1953125 C85.6028624 -0.20452728 86.55728729 -0.21374207 87.54063416 -0.22323608 C92.40909242 -0.19248465 95.84522651 -0.08846122 99.75952148 3.16113281 C101.63148861 6.90506706 101.24464011 11.52937016 100.07202148 15.47363281 C97.8530342 18.32661646 95.38609117 19.93643951 91.75037575 20.43867493 C89.25011549 20.54927174 86.76538201 20.56314782 84.26269531 20.54589844 C82.83728928 20.5539576 82.83728928 20.5539576 81.38308716 20.56217957 C79.32278792 20.57195041 77.26244756 20.57490381 75.20212746 20.57182312 C71.93490167 20.56733938 68.66821594 20.58136349 65.40104675 20.60021973 C58.45804717 20.63699742 51.51510411 20.65070164 44.57202148 20.66113281 C36.54109419 20.67323177 28.51042963 20.69491785 20.47961998 20.74113464 C17.27242424 20.75464741 14.06556543 20.75054337 10.85835266 20.74572754 C8.87333762 20.75507587 6.88832622 20.76524662 4.90332031 20.77636719 C4.02140518 20.77021896 3.13949005 20.76407074 2.23085022 20.75773621 C-6.35031978 20.84157972 -14.46898995 22.64945607 -21.24047852 28.16113281 C-27.58328819 34.94646409 -29.63585055 41.16257437 -31.29907227 50.13769531 C-32.35372286 53.52483042 -33.52597169 54.9330405 -36.24047852 57.16113281 C-39.94443955 59.01311333 -44.20751734 58.760539 -48.24047852 58.16113281 C-50.68555875 55.89496089 -51.77590058 54.09028867 -53.24047852 51.16113281 C-53.52053971 36.63795956 -49.08412551 25.72274254 -39.24047852 15.16113281 C-28.34531473 4.12037664 -15.14681146 0.01777823 0 0 Z " fill="#030303" transform="translate(186.240478515625,520.8388671875)"/>
<path d="M0 0 C14.03290335 6.4354716 23.47729743 16.6335074 29.03125 30.90234375 C33.96208878 44.61565765 32.41711769 56.39392643 26.81640625 69.765625 C20.02331314 83.42900546 8.1040298 92.2146064 -6.1328125 97.02734375 C-13.21231607 98.93298418 -20.10462747 99.76892275 -26.93359375 96.78125 C-29.67119947 93.85640238 -30.38505067 91.76178266 -30.43359375 87.78125 C-30.30395978 84.25520612 -30.20620562 83.13300725 -27.99609375 80.28125 C-24.74818049 78.69043534 -21.85237627 77.94708831 -18.32421875 77.2578125 C-8.84669051 75.36850132 -2.22493447 71.29845075 4.44140625 64.28125 C9.63127485 56.29683677 9.97373484 49.26695794 9.06640625 39.78125 C8.23128016 36.63958517 7.01033074 34.37124351 5.06640625 31.78125 C4.545625 31.08386719 4.02484375 30.38648438 3.48828125 29.66796875 C-3.81088896 20.67552257 -12.42581262 18.11409419 -23.6015625 16.36328125 C-29.47256536 15.39595451 -29.47256536 15.39595451 -31.99609375 12.03125 C-33.31875391 7.4460281 -33.68544875 4.43533101 -31.68359375 0.03125 C-24.50642753 -9.19653514 -8.96568024 -3.72475664 0 0 Z " fill="#050505" transform="translate(254.93359375,565.21875)"/>
<path d="M0 0 C12.35753969 4.4936508 20.72850819 12.28988875 26.95703125 23.7265625 C31.65846431 33.97463006 31.74781304 46.38750583 28 57 C22.69149421 68.7736134 14.75094492 76.28580801 2.8984375 81.31640625 C-4.83596037 84.01685903 -12.85671725 85.53921564 -21 84 C-24.05117448 82.17037157 -25.60339247 80.25663484 -27 77 C-27.73339873 72.74628737 -27.53094325 70.88490542 -25.3125 67.1875 C-21.42942346 63.51431949 -17.44103018 62.81234623 -12.25 62.1875 C-5.50184055 61.09185788 0.10154363 59.38153243 4.6640625 54.05859375 C8.32309044 48.34519538 9.21122598 42.65681919 8 36 C5.45509568 29.49760131 0.24923118 23.95448808 -6.09765625 21.03515625 C-10.13601433 19.60356899 -14.08391955 18.82800557 -18.3125 18.1875 C-22.05429705 17.47754784 -22.83393046 17.17002358 -25.625 14.3125 C-27.22070585 10.46829953 -27.59944679 8.12119668 -27 4 C-21.04628677 -5.12902696 -9.32940144 -3.05618323 0 0 Z " fill="#050505" transform="translate(354,336)"/>
<path d="M0 0 C4.54054054 2.08108108 4.54054054 2.08108108 6 5 C7.24341788 24.60774352 2.56172608 42.92247456 -10.30859375 58.125 C-10.86675781 58.74375 -11.42492187 59.3625 -12 60 C-12.50660156 60.598125 -13.01320313 61.19625 -13.53515625 61.8125 C-24.78994085 74.20105897 -42.5249191 81.22094858 -59 82.2890625 C-60.43723917 82.34561336 -61.87477451 82.39507531 -63.3125 82.4375 C-63.99481689 82.47206299 -64.67713379 82.50662598 -65.38012695 82.54223633 C-69.30296486 82.57459262 -70.85212347 82.12174574 -73.91796875 79.59765625 C-76.80240884 75.99887078 -77.20334532 73.76320151 -77.62109375 69.16796875 C-76.60504825 65.62139483 -74.06559073 63.79027226 -71 62 C-68.30269465 61.11147183 -65.624625 60.72710773 -62.8125 60.375 C-61.29635582 60.14268627 -59.78072362 59.90700643 -58.265625 59.66796875 C-57.53408203 59.55630371 -56.80253906 59.44463867 -56.04882812 59.32958984 C-43.14640079 57.25400871 -32.41655173 51.68944472 -24.56640625 41.05859375 C-18.43776593 31.76561094 -16.1559517 21.71585449 -15.75 10.6875 C-15.45983963 6.9299232 -15.26472163 4.43117235 -12.5 1.75 C-8.10973487 -0.44513257 -4.81549076 -0.83362087 0 0 Z " fill="#050505" transform="translate(291,331)"/>
<path d="M0 0 C3.7923749 2.08208818 7.00178435 4.10873795 9 8 C9.18569261 9.37018634 9.32608012 10.7467845 9.4375 12.125 C10.03806003 19.40378755 12.70271063 26.84588061 18 32 C27.1579225 38.86844188 34.79998251 41.11114355 46.25 41.17578125 C47.84376338 41.19896781 49.43751344 41.22308466 51.03125 41.24804688 C53.51962397 41.28318091 56.0075015 41.31254035 58.49609375 41.32592773 C60.91465569 41.34144971 63.33181233 41.38166049 65.75 41.42578125 C66.48766602 41.42387283 67.22533203 41.42196442 67.98535156 41.41999817 C73.1143139 41.5406688 76.05802985 42.74957121 80 46 C82.38313638 49.57470457 82.64837918 50.78553535 82 55 C80.05213526 58.44145153 77.79962513 61.46013086 73.91079712 62.6267395 C71.45065171 62.84286974 69.08141967 62.84026815 66.61328125 62.75390625 C65.71562546 62.74874496 64.81796967 62.74358368 63.89311218 62.73826599 C61.99761535 62.7211674 60.10220453 62.68737799 58.20727539 62.63793945 C55.33872456 62.56318343 52.47292918 62.53557823 49.60351562 62.51757812 C30.81309848 62.31677701 15.20878117 60.04739721 1.1796875 46.36328125 C-8.53240343 35.83314682 -14.0701098 23.19748053 -13.5 8.6953125 C-12.99249259 5.95953037 -12.52767449 4.7319526 -10.625 2.75 C-6.74653622 0.16435748 -4.70302735 -0.45221417 0 0 Z " fill="#050505" transform="translate(108,407)"/>
<path d="M0 0 C2.05558571 0.02680351 4.10571465 0.00020868 6.16113281 -0.03173828 C17.18243439 0.02260739 17.18243439 0.02260739 20.48535156 2.95654297 C21.33484375 3.84599609 22.18433594 4.73544922 23.05957031 5.65185547 C25.69830061 7.1196364 28.45645436 8.25474513 31.24707031 9.40185547 C31.95798828 9.70478516 32.66890625 10.00771484 33.40136719 10.31982422 C36.262146 11.53087828 39.11164448 12.66921352 42.05957031 13.65185547 C42.05957031 14.31185547 42.05957031 14.97185547 42.05957031 15.65185547 C40.48369141 16.17972656 40.48369141 16.17972656 38.87597656 16.71826172 C26.1522853 21.13077843 15.45026385 27.04971058 8.93457031 39.40185547 C6.61977425 44.34268068 4.84013663 49.49957847 3.05957031 54.65185547 C2.39957031 54.65185547 1.73957031 54.65185547 1.05957031 54.65185547 C0.62386719 53.51748047 0.18816406 52.38310547 -0.26074219 51.21435547 C-4.6266095 39.55838465 -4.6266095 39.55838465 -11.94042969 29.65185547 C-12.51535156 29.06533203 -13.09027344 28.47880859 -13.68261719 27.87451172 C-20.83481406 21.5154573 -30.06566037 18.80158481 -38.94042969 15.65185547 C-38.94042969 14.99185547 -38.94042969 14.33185547 -38.94042969 13.65185547 C-38.07877197 13.32761597 -38.07877197 13.32761597 -37.19970703 12.99682617 C-34.56682086 11.99815436 -31.941251 10.98145037 -29.31542969 9.96435547 C-28.41179688 9.6246875 -27.50816406 9.28501953 -26.57714844 8.93505859 C-20.91333092 6.72841046 -20.91333092 6.72841046 -16.22949219 2.92138672 C-11.15981078 -0.57681387 -6.03010297 -0.0937247 0 0 Z " fill="#050505" transform="translate(737.9404296875,-0.65185546875)"/>
<path d="M0 0 C0.68578125 -0.02449219 1.3715625 -0.04898438 2.078125 -0.07421875 C7.20642076 -0.10357922 10.04891442 1.18075887 14 4.375 C15.93886856 6.90395899 16.00575405 8.10455988 15.9375 11.3125 C14.72626175 15.26921161 13.19760846 16.75722454 10 19.375 C7.29528283 20.05616692 4.92478211 20.50185239 2.1875 20.8125 C-6.21569614 22.0794522 -10.71455287 24.63324077 -16.25 30.9375 C-17.96572671 34.30767746 -18.87570351 37.36434812 -19.875 41 C-21.10440546 45.19528634 -21.67538829 47.05038829 -24.8125 50.1875 C-28.57523417 51.58930293 -31.01747916 51.95427576 -35 51.375 C-37.75329021 49.57937595 -39.52627461 48.32245078 -41 45.375 C-42.02675181 34.88866598 -40.04037321 26.132118 -33.75 17.625 C-24.78998888 6.94558377 -14.28156484 0.02684505 0 0 Z " fill="#040404" transform="translate(262,185.625)"/>
<path d="M0 0 C1.02416519 -0.00397797 2.04833038 -0.00795593 3.10353088 -0.01205444 C4.26831467 -0.02781525 5.43309845 -0.04357605 6.63317871 -0.05981445 C8.51451256 -0.04463272 8.51451256 -0.04463272 10.43385315 -0.02914429 C12.37192589 -0.03631973 12.37192589 -0.03631973 14.34915161 -0.04364014 C17.08219842 -0.05100401 19.81442703 -0.04032571 22.54737854 -0.01693726 C26.04272218 0.0115248 29.53614406 -0.00483593 33.03141689 -0.03479958 C36.37404759 -0.05726564 39.71616792 -0.04151096 43.05885315 -0.02914429 C44.93715065 -0.04432602 44.93715065 -0.04432602 46.85339355 -0.05981445 C56.50393951 0.0704156 56.50393951 0.0704156 59.60401917 3.04751587 C62.06893043 6.77992473 62.12488699 9.3210362 61.3127594 13.63491821 C59.67588755 17.22044702 58.62303357 18.42806876 55.3127594 20.63491821 C52.85966492 20.90234375 52.85966492 20.90234375 49.91090393 20.92544556 C48.80610687 20.93820526 47.70130981 20.95096497 46.56303406 20.96411133 C45.36927155 20.96633698 44.17550903 20.96856262 42.9455719 20.97085571 C41.10525894 20.98084091 41.10525894 20.98084091 39.22776794 20.99102783 C36.6302999 21.00116137 34.03280578 21.00584464 31.43531799 21.00552368 C27.46043474 21.00989329 23.4866646 21.04619834 19.51197815 21.08413696 C16.98984654 21.0900056 14.46770964 21.09397468 11.9455719 21.09585571 C10.16100082 21.11741226 10.16100082 21.11741226 8.34037781 21.1394043 C0.11710103 21.09386394 0.11710103 21.09386394 -3.91429138 18.79360962 C-6.76773304 15.31934204 -6.86348383 12.15615805 -7.11302185 7.76773071 C-6.29647647 3.67751255 -4.0649998 0.96044337 0 0 Z " fill="#040404" transform="translate(312.68724060058594,520.3650817871094)"/>
<path d="M0 0 C4.05756654 2.35145995 7.23711466 4.51437001 8.88671875 9.05078125 C9.56121203 13.65270375 9.31000924 17.07537273 7.44921875 21.36328125 C3.51576126 25.48861471 -0.74788894 27.77402201 -6.48828125 28.24609375 C-12.19274283 27.91847265 -15.20285338 26.1519617 -19.11328125 22.05078125 C-21.82574116 17.58925237 -21.88371379 13.13082082 -21.11328125 8.05078125 C-19.29926975 4.15551548 -16.4628363 2.2449785 -12.73828125 0.17578125 C-8.10973368 -1.26066455 -4.56417387 -2.05008179 0 0 Z " fill="#F5F5F5" transform="translate(631.11328125,643.94921875)"/>
<path d="M0 0 C4.44283595 2.47773543 6.64509106 4.99777318 8.25 9.8125 C9.0308157 16.50520597 9.0308157 16.50520597 7.05078125 19.8203125 C4.43141995 22.97410268 2.0997396 25.26375418 -1.75 26.8125 C-8.39077664 27.2409372 -13.33810708 26.9028072 -18.5625 22.375 C-21.84794038 18.52634127 -22.20788689 15.06193298 -22.16796875 10.16796875 C-21.43836033 6.05625027 -18.8977344 3.41876633 -15.75 0.8125 C-10.533436 -2.29877077 -5.58012485 -1.76703954 0 0 Z " fill="#F8F8F8" transform="translate(540.75,698.1875)"/>
<path d="M0 0 C4.26164894 2.32785276 7.30889516 4.96334274 10 9 C10.58164691 13.45677504 10.4991243 17.64942837 8.9375 21.875 C5.59574061 25.54015546 2.40021023 27.6240177 -2.46875 28.38671875 C-8.11932421 28.63350588 -11.66532072 27.91178374 -16 24 C-19.41849904 20.12570109 -19.46150084 16.33206267 -19.27734375 11.3671875 C-18.89757907 8.12581574 -18.20908299 6.42286521 -16 4 C-10.92980971 0.24805919 -6.30624595 -1.45777946 0 0 Z " fill="#F6F6F6" transform="translate(677,541)"/>
<path d="M0 0 C4.05427927 1.33262397 7.0685983 3.01038569 10 6.125 C11.5191714 10.49261779 11.89433208 14.44316513 11 19 C8.69188509 22.96298975 5.78654557 25.47563628 2 28 C-2.80267384 28.61157644 -7.80247922 28.56515159 -12 26 C-16.30479992 21.98870917 -17.75351968 18.98653978 -18.05859375 13.1015625 C-17.92719004 8.38854945 -16.18774402 5.93020285 -12.9375 2.6875 C-8.76126771 -0.66561596 -5.17903238 -1.03935984 0 0 Z " fill="#F7F7F7" transform="translate(547,569)"/>
<path d="M0 0 C4.24803652 2.53261319 7.42071751 5.26215254 9 10 C9.78446671 16.72400035 9.78446671 16.72400035 7.765625 20.0078125 C4.88388626 23.41739448 2.14255644 26.64518174 -2.453125 27.40625 C-7.51822673 27.57602995 -11.05643812 27.58979054 -15.0625 24.25 C-18.34352575 21.07326113 -19.8596564 18.23970184 -20.375 13.6875 C-19.82414791 8.27078779 -17.97706877 4.85724642 -13.9375 1.0625 C-9.23779538 -0.63739316 -4.91432969 -0.98012433 0 0 Z " fill="#F7F7F7" transform="translate(568,488)"/>
<path d="M0 0 C3.54813789 1.94787975 6.18410919 4.36821838 8 8 C8.43011819 12.21019538 8.4699635 15.88692855 6.8125 19.8125 C4.28549495 22.86233368 1.55081434 25.22459283 -2 27 C-7.24308569 27.40331428 -10.56127553 26.86051133 -15 24 C-19.11482263 19.44033168 -20.45513459 16.45110335 -20.42578125 10.39453125 C-19.69260603 6.27126142 -17.08526198 3.68561665 -14 1 C-9.76844833 -1.11577584 -4.58223826 -0.63707139 0 0 Z " fill="#F8F8F8" transform="translate(659,427)"/>
<path d="M0 0 C3.28763709 2.38514848 4.76334986 3.54269082 6.1875 7.3125 C6.8899958 12.05434668 6.66091029 15.36567943 4.5 19.6875 C1.11079478 23.53470592 -1.0838288 25.15534807 -6.25 25.625 C-11.57324803 25.15804842 -15.10580257 24.44680071 -18.625 20.3125 C-21.42171801 16.47700101 -22.22154142 14.2948198 -22.16015625 9.48046875 C-21.54470115 5.64251839 -19.52188164 3.01439716 -16.8125 0.3125 C-11.63161478 -2.90805027 -5.31734999 -2.77671342 0 0 Z " fill="#F8F8F8" transform="translate(492.8125,395.6875)"/>
<path d="M0 0 C3.64856489 1.88196726 5.7329699 4.59945486 8 8 C8.82107258 13.59822216 8.20403613 18.2491878 5 23 C2.73941218 25.60310112 1.11128236 26.79812018 -2.30078125 27.41796875 C-7.795273 27.7264607 -11.28452521 26.8649371 -15.625 23.484375 C-19.31730304 19.49836604 -19.37270728 15.62130936 -19.25 10.40625 C-18.80397942 6.11330192 -17.11351447 4.00912249 -14 1.1875 C-9.34902621 -0.65351046 -4.92619866 -0.78732501 0 0 Z " fill="#F6F6F6" transform="translate(489,179)"/>
<path d="M0 0 C2.78910982 2.38707597 3.60698565 4.49044183 4.0703125 8.10546875 C4.17581034 15.71186315 4.17581034 15.71186315 1.984375 19.546875 C-2.62472928 23.51582591 -6.51317221 24.02950817 -12.49609375 23.94140625 C-16.87123981 23.21941459 -19.58949895 20.94314169 -22.265625 17.484375 C-23.93077651 12.48892047 -24.13154617 7.47599368 -22.015625 2.609375 C-15.68397244 -5.07906025 -8.0736993 -5.06953212 0 0 Z " fill="#F8F8F8" transform="translate(590.265625,199.515625)"/>
<path d="M0 0 C3.74594843 1.6081414 6.9892179 3.39986938 9.19921875 6.8984375 C10.60135532 10.57819104 10.56333745 14.13040826 10 18 C6.07079646 25.20353982 6.07079646 25.20353982 2.375 26.625 C-2.8893494 27.45621306 -6.53254709 27.71988256 -11.3125 25.375 C-14.78338709 22.30770443 -16.56651453 19.67583625 -17.31640625 15.046875 C-17.61962957 9.92142272 -16.35654809 7.00921021 -13 3 C-9.45253864 -0.94162374 -4.9604214 -0.87680116 0 0 Z " fill="#F8F8F8" transform="translate(644,293)"/>
<path d="M0 0 C1.485 0.495 1.485 0.495 3 1 C2.55269531 1.37511719 2.10539063 1.75023437 1.64453125 2.13671875 C-3.05934721 6.11846661 -7.48755664 10.12934637 -11.375 14.9375 C-13.74458093 17.84358982 -16.4226821 20.16746148 -19.30078125 22.55859375 C-21.67403289 24.57176583 -23.83008918 26.77144294 -26 29 C-27.33333333 30.33333333 -28.66666667 31.66666667 -30 33 C-30 30 -30 30 -28.86108398 28.50032043 C-28.32813721 27.97403549 -27.79519043 27.44775055 -27.24609375 26.90551758 C-26.34515991 26.00492363 -26.34515991 26.00492363 -25.42602539 25.08613586 C-24.76981201 24.44540634 -24.11359863 23.80467682 -23.4375 23.14453125 C-22.77161865 22.48289474 -22.1057373 21.82125824 -21.41967773 21.13957214 C-19.28670621 19.0234226 -17.1435509 16.91792734 -15 14.8125 C-13.55400575 13.38154797 -12.10868429 11.94991572 -10.6640625 10.51757812 C-7.1171401 7.00377176 -3.56104822 3.49948754 0 0 Z " fill="#111111" transform="translate(549,230)"/>
<path d="M0 0 C0 0.33 0 0.66 0 1 C-1.28777344 1.12117188 -2.57554687 1.24234375 -3.90234375 1.3671875 C-5.58077848 1.53596865 -7.25916135 1.70526613 -8.9375 1.875 C-10.21270508 1.99294922 -10.21270508 1.99294922 -11.51367188 2.11328125 C-12.72700195 2.23896484 -12.72700195 2.23896484 -13.96484375 2.3671875 C-15.08814087 2.47716064 -15.08814087 2.47716064 -16.23413086 2.58935547 C-16.81686768 2.72486816 -17.39960449 2.86038086 -18 3 C-18.33 3.66 -18.66 4.32 -19 5 C-19.66 5 -20.32 5 -21 5 C-21 4.34 -21 3.68 -21 3 C-22.98 3 -24.96 3 -27 3 C-27 2.67 -27 2.34 -27 2 C-17.91921505 0.31055164 -9.23015944 -0.24908976 0 0 Z " fill="#505050" transform="translate(147,322)"/>
<path d="M0 0 C0.66 0.33 1.32 0.66 2 1 C1.2575 1.721875 0.515 2.44375 -0.25 3.1875 C-2.97539437 5.87055629 -2.97539437 5.87055629 -5 8.5625 C-7.104689 11.12758972 -9.35227996 13.01420997 -12 15 C-12.66 14.67 -13.32 14.34 -14 14 C-9.38 9.38 -4.76 4.76 0 0 Z " fill="#1A1A1A" transform="translate(110,245)"/>
<path d="M0 0 C0.33 0.99 0.66 1.98 1 3 C-2.33333333 6.33333333 -5.66666667 9.66666667 -9 13 C-9.99 12.67 -10.98 12.34 -12 12 C-11.01 11.67 -10.02 11.34 -9 11 C-7.79117904 8.99983534 -7.79117904 8.99983534 -7 7 C-6.34 7 -5.68 7 -5 7 C-4.67 6.01 -4.34 5.02 -4 4 C-2.70644173 2.62804426 -1.37701298 1.28817344 0 0 Z " fill="#D0D0D0" transform="translate(556,252)"/>
<path d="M0 0 C0.66 1.32 1.32 2.64 2 4 C1.401875 4.268125 0.80375 4.53625 0.1875 4.8125 C-3.31088537 6.71162349 -4.73345454 8.20036361 -6 12 C-6.99 11.67 -7.98 11.34 -9 11 C-7.90299157 7.7089747 -7.12380142 7.03976712 -4.5 4.9375 C-1.81893599 2.82278233 -1.81893599 2.82278233 0 0 Z " fill="#E5E5E5" transform="translate(682,459)"/>
<path d="M0 0 C0.66 0.33 1.32 0.66 2 1 C-1.086303 4.87992378 -4.02338502 7.99066975 -8 11 C-8.66 11.66 -9.32 12.32 -10 13 C-10 10 -10 10 -7.8125 7.51953125 C-6.884375 6.62621094 -5.95625 5.73289062 -5 4.8125 C-4.071875 3.91144531 -3.14375 3.01039063 -2.1875 2.08203125 C-1.1046875 1.05142578 -1.1046875 1.05142578 0 0 Z " fill="#F0F0F0" transform="translate(544,265)"/>
<path d="M0 0 C-2 2 -2 2 -4 3 C-4 2.34 -4 1.68 -4 1 C-9.28 1 -14.56 1 -20 1 C-20 0.67 -20 0.34 -20 0 C-17.41703983 -0.19522373 -14.83395921 -0.38144403 -12.25 -0.5625 C-11.52039063 -0.61857422 -10.79078125 -0.67464844 -10.0390625 -0.73242188 C-6.45046349 -0.97709908 -3.44972775 -0.99666259 0 0 Z " fill="#A5A5A5" transform="translate(556,617)"/>
<path d="M0 0 C0.66 0.66 1.32 1.32 2 2 C-1.3 5.3 -4.6 8.6 -8 12 C-8.66 11.34 -9.32 10.68 -10 10 C-9.44570313 9.52949219 -8.89140625 9.05898438 -8.3203125 8.57421875 C-7.59585938 7.95160156 -6.87140625 7.32898438 -6.125 6.6875 C-5.40570312 6.07261719 -4.68640625 5.45773437 -3.9453125 4.82421875 C-1.80820669 2.9587676 -1.80820669 2.9587676 0 0 Z " fill="#DEDEDE" transform="translate(593,519)"/>
<path d="M0 0 C0.66 0.33 1.32 0.66 2 1 C-2.75 5 -2.75 5 -5 5 C-5.33 5.99 -5.66 6.98 -6 8 C-6.66 8 -7.32 8 -8 8 C-8.33 8.66 -8.66 9.32 -9 10 C-9.66 9.34 -10.32 8.68 -11 8 C-7.37 5.36 -3.74 2.72 0 0 Z " fill="#222222" transform="translate(215,159)"/>
<path d="M0 0 C0.33 1.32 0.66 2.64 1 4 C-5.625 7 -5.625 7 -9 7 C-6.03 4.69 -3.06 2.38 0 0 Z " fill="#E1E1E1" transform="translate(86,360)"/>
<path d="M0 0 C0 0.66 0 1.32 0 2 C-0.66 2 -1.32 2 -2 2 C-2.33 2.99 -2.66 3.98 -3 5 C-4.62332967 6.38576923 -6.28724465 7.72641268 -8 9 C-8.66 8.67 -9.32 8.34 -10 8 C-8.71451591 6.66070495 -7.42141845 5.32871357 -6.125 4 C-5.04605469 2.88625 -5.04605469 2.88625 -3.9453125 1.75 C-2 0 -2 0 0 0 Z " fill="#131313" transform="translate(239,194)"/>
<path d="M0 0 C0.66 0.33 1.32 0.66 2 1 C-0.25 3.5 -0.25 3.5 -3 6 C-4.32 6 -5.64 6 -7 6 C-4.74259377 3.66475218 -2.7194239 1.81294927 0 0 Z " fill="#E1E1E1" transform="translate(228,176)"/>
<path d="M0 0 C-1.22934015 3.68802044 -2.93859378 4.72356973 -6 7 C-6.66 6.67 -7.32 6.34 -8 6 C-3.38461538 0 -3.38461538 0 0 0 Z " fill="#D1D1D1" transform="translate(480,395)"/>
<path d="M0 0 C1.625 2.5 1.625 2.5 3 5 C2.34 5.66 1.68 6.32 1 7 C-0.65 5.02 -2.3 3.04 -4 1 C-2 0 -2 0 0 0 Z " fill="#E0E0E0" transform="translate(204,288)"/>
<path d="M0 0 C0.33 1.32 0.66 2.64 1 4 C-1.97 6.475 -1.97 6.475 -5 9 C-5.66 8.67 -6.32 8.34 -7 8 C-4.69 5.36 -2.38 2.72 0 0 Z " fill="#D4D4D4" transform="translate(514,426)"/>
<path d="M0 0 C0.66 0.33 1.32 0.66 2 1 C1.67 1.99 1.34 2.98 1 4 C0.34 4 -0.32 4 -1 4 C-1.33 4.66 -1.66 5.32 -2 6 C-2.99 6.66 -3.98 7.32 -5 8 C-3.8141763 4.62496331 -2.72426311 2.35277269 0 0 Z " fill="#1A1A1A" transform="translate(270,225)"/>
<path d="M0 0 C0.66 0.33 1.32 0.66 2 1 C1.25 2.9375 1.25 2.9375 0 5 C-2.125 5.75 -2.125 5.75 -4 6 C-3.6875 4.125 -3.6875 4.125 -3 2 C-2.01 1.34 -1.02 0.68 0 0 Z " fill="#1B1B1B" transform="translate(231,450)"/>
<path d="M0 0 C0.66 0.33 1.32 0.66 2 1 C-0.31 3.31 -2.62 5.62 -5 8 C-5.33 7.34 -5.66 6.68 -6 6 C-4 4 -2 2 0 0 Z " fill="#CBCBCB" transform="translate(574,197)"/>
</svg>
